<svg width="405" height="184" viewBox="0 0 405 184" fill="none" xmlns="http://www.w3.org/2000/svg">
<path d="M2.35545 1.73166L124.963 55.2108L160.56 25.8292L160.851 25.5865L161.215 25.6512L190.232 30.7734L232.949 26.2176L234.236 26.0801L233.791 27.2939L232.65 30.4335L232.48 30.8867L232.003 30.9514L191.77 36.6157L168.894 64.5731L156.651 87.6268L156.595 87.732L156.506 87.821L123.385 120.367L123.296 120.456L123.183 120.512L92.5555 136.251L95.331 161.214L108.367 182.188L109.257 183.629L107.582 183.418L103.01 182.852L102.719 182.811L102.517 182.585L82.5297 160.308L82.384 160.146L82.3436 159.928L75.773 126.808L75.7487 126.678L75.773 126.533L80.8466 94.6991L58.9742 74.5261L18.0699 39.634L17.9323 39.5207L17.8595 39.3588L1.29542 2.80788L0.0249939 0L2.35545 1.73166ZM124.769 56.8939L3.63397 4.05402L19.2513 38.5254L60.0262 73.3366L60.0424 73.3528L82.2384 93.8171L82.5539 94.1084L82.4811 94.5373L77.3671 126.654L83.8648 159.426L103.496 181.298L106.085 181.622L93.8502 161.934L93.7531 161.781L93.7288 161.595L90.8724 135.895L90.8157 135.345L91.3174 135.086L122.325 119.153L155.267 86.7772L167.494 63.7558L167.535 63.683L167.583 63.6183L190.71 35.3534L190.904 35.1106L191.22 35.0621L231.282 29.422L231.817 27.9574L190.273 32.3837L190.16 32.3998L190.046 32.3837L161.288 27.31L125.603 56.7725L125.222 57.0881L124.769 56.8939Z" fill="white"/>
<path d="M191.688 36.8827L147.434 60.0093L145.419 61.0612L146.317 58.9735L160.308 26.4199L161.789 27.0592L148.696 57.5251L190.944 35.4505L191.688 36.8827Z" fill="white"/>
<path d="M125.173 55.6397L147.159 58.4961L147.677 58.5608L147.83 59.0544L156.683 87.3193L155.137 87.8048L146.439 60.0255L124.971 57.2419L125.173 55.6397Z" fill="white"/>
<path d="M167.995 65.2204L147.345 60.1954L118.157 93.3316L92.3606 136.518L90.9769 135.684L116.814 92.4334L116.855 92.3606L116.895 92.312L146.455 58.7631L146.77 58.3909L147.248 58.5123L168.376 63.6506L167.995 65.2204Z" fill="white"/>
<path d="M156.019 88.3632L118.465 93.5258L123.587 119.962L121.993 120.261L116.709 92.9998L116.547 92.1583L117.397 92.045L155.801 86.761L156.019 88.3632Z" fill="white"/>
<path d="M127.131 55.5749L118.295 93.0241L118.157 93.6148L117.542 93.6472L81.7117 95.5083L81.6307 93.8899L116.863 92.0693L125.553 55.2108L127.131 55.5749Z" fill="white"/>
<path d="M83.2168 159.288L93.0807 160.761L75.8127 127.334L75.5214 126.759L76.015 126.346L116.992 92.223L118.02 93.4611L77.5444 127.172L95.2413 161.433L95.9614 162.833L94.4078 162.598L82.9821 160.882L83.2168 159.288Z" fill="white"/>
<path d="M102.338 182.666L93.7766 162.112L95.2655 161.489L103.835 182.043L102.338 182.666Z" fill="white"/>
<path d="M116.96 93.4449L85.4097 64.7511L85.3368 64.6783L85.2802 64.5893L62.8657 30.037L64.2171 29.1631L86.5749 63.6183L118.052 92.2473L116.96 93.4449Z" fill="white"/>
<path d="M107.541 49.2309L86.4373 64.7997L86.3402 64.8644L86.2431 64.9049L59.7665 74.9873L59.192 73.4822L85.5634 63.4322L106.586 47.9281L107.541 49.2309Z" fill="white"/>
<path d="M63.7153 30.385L18.7407 40.0952L18.4009 38.5173L63.3674 28.8071L63.7153 30.385Z" fill="white"/>
<path d="M2.49229 2.11197L87.9262 64.8563L86.9714 66.1591L1.52936 3.41476L2.49229 2.11197Z" fill="white"/>
<path d="M98.5023 38.493L71.3055 6.05272L75.0521 29.2602L98.5023 38.493ZM70.6582 2.77551L101.78 39.8929L103.819 42.3286L100.865 41.1633L74.0244 30.6034L73.5955 30.4335L73.5227 29.9804L69.2421 3.42286L68.7809 0.52597L70.6582 2.77551Z" fill="white"/>
<path d="M191.656 31.7282L192.028 35.1915L232.835 26.5251L233.175 28.1031L191.486 36.9556L190.604 37.1417L190.515 36.2516L190.046 31.8981L191.656 31.7282Z" fill="white"/>
<path d="M148.696 57.5251L190.45 35.7013L190.126 32.6911L190.029 32.6749L161.538 27.6418L148.696 57.5251ZM191.688 36.8827L147.434 60.0093L145.419 61.0612L146.317 58.9735L160.308 26.4199L160.559 25.8292L161.19 25.9425L190.207 31.0647L190.766 31.008L191.567 30.919L191.656 31.7282L192.117 36.0816L192.174 36.6238L191.688 36.8827Z" fill="white"/>
<path d="M148.259 60.4139L156.108 85.4744L166.992 64.9696L148.259 60.4139ZM155.137 87.8049L146.285 59.54L145.856 58.399L147.248 58.5123L168.376 63.6506L169.387 63.8934L168.902 64.8078L156.618 87.9343L155.032 89.5527L155.137 87.8049Z" fill="white"/>
<path d="M154.854 86.8905L146.722 60.9075L119.557 91.7456L154.854 86.8905ZM147.83 59.0544L156.683 87.3193L156.481 88.1366L156.019 88.3632L117.615 93.6472L115.463 93.9385L116.895 92.312L146.447 58.7631L147.393 57.6869L147.83 59.0544Z" fill="white"/>
<path d="M119.031 89.8844L145.443 59.896L126.678 57.4603L119.031 89.8844ZM147.668 59.8312L118.117 93.3801L115.981 95.8077L116.717 92.668L125.278 56.3922L125.448 55.6801L126.168 55.7691L147.167 58.4961L148.672 58.6903L147.668 59.8312Z" fill="white"/>
<path d="M146.714 60.9075L119.549 91.7456L154.854 86.8905L146.714 60.9075ZM116.895 92.312L146.447 58.7631L147.393 57.6869L147.822 59.0544L156.675 87.3193L156.561 88.0395L156.011 88.3551L117.607 93.6391L115.455 93.9304L116.895 92.312Z" fill="white"/>
<path d="M153.608 88.695L118.465 93.5258L123.296 118.481L153.608 88.695ZM117.397 92.045L155.801 86.761L157.686 85.9356L156.472 88.1366L123.692 120.553L121.888 121.475L121.993 120.261L116.709 92.9917L116.547 92.1583L117.397 92.045Z" fill="white"/>
<path d="M117.114 95.0713L93.8009 134.098L121.88 119.671L117.114 95.0713ZM90.8231 135.353L116.814 92.4253L117.898 90.6127L118.303 92.6923L123.587 119.962L123.7 120.553L123.158 120.828L92.0288 136.817L91.5837 139.641L90.7988 135.644L90.8231 135.353Z" fill="white"/>
<path d="M90.9202 135.199L114.387 96.4874L77.5444 127.172L93.2345 157.549L90.8636 136.186L90.8069 135.409L90.8555 135.304L90.9202 135.199ZM118.198 93.2588L92.4981 136.283L95.3222 161.716L95.7996 166.053L93.8009 162.177L75.8127 127.342L75.5214 126.767L76.0231 126.354L117 92.2311L120.634 89.2047L118.198 93.2588Z" fill="white"/>
<path d="M115.131 93.7766L82.3671 95.4759L77.6657 124.971L115.131 93.7766ZM81.6308 93.8899L117.462 92.0369L119.881 91.9074L118.02 93.4611L77.0427 127.584L76.104 128.96L75.5133 126.759L80.8701 94.5777L80.9753 93.9304L81.6308 93.8899Z" fill="white"/>
<path d="M81.9706 93.8737L115.528 92.134L86.9309 66.1267L85.5957 65.1476L60.9803 74.5261L81.9706 93.8737ZM117.542 93.6472L81.7117 95.5002L81.3718 95.5164L81.1209 95.2898L58.9331 74.8336L57.9782 73.9516L59.192 73.4903L85.442 63.4969L85.8466 63.3431L86.2026 63.6021L87.9262 64.8725L87.9667 64.9049L87.999 64.9291L118.06 92.2635L119.654 93.3801L117.542 93.6472Z" fill="white"/>
<path d="M19.0402 38.3797L42.3124 33.3547L4.02166 5.23544L19.0402 38.3797ZM44.4001 34.5604L18.7408 40.1033L18.8864 40.6374L17.8345 39.6421L1.27042 3.0911L0 0.283218L2.49229 2.11198L44.7157 33.12L46.1641 34.1881L44.4001 34.5604Z" fill="white"/>
<path d="M107.169 49.506L87.2303 64.209L87.991 64.9049L117.033 91.3167L125.052 57.3066L124.744 57.1771L107.169 49.506ZM85.4825 63.4969L106.586 47.9281L106.958 47.653L107.387 47.8391L124.947 55.5021L125.837 54.7657L127.69 53.2364L127.139 55.5668L126.864 56.7402L118.303 93.016L117.988 94.3512L116.976 93.4287L86.9147 66.0944L85.4177 64.7349L84.6895 64.0714L85.4825 63.4969Z" fill="white"/>
<path d="M86.1622 62.9871L105.453 48.7616L65.6736 31.4126L86.1622 62.9871ZM107.541 49.2309L86.4373 64.7997L85.7495 65.3095L85.2802 64.5893L62.8657 30.037L61.4011 27.7875L63.861 28.8637L107.379 47.8472L108.666 48.4055L107.541 49.2309Z" fill="white"/>
<path d="M162.752 131.833C162.752 133.645 162.517 138.784 156.035 138.784C153.349 138.784 150.954 138.023 150.954 134.932C150.954 131.889 153.292 131.015 155.857 130.489C158.431 130.02 161.352 129.963 162.752 128.734V131.833ZM151.884 122.6C152.176 119.331 154.223 118.044 157.379 118.044C160.3 118.044 162.752 118.57 162.752 122.131C162.752 125.521 158.018 125.343 152.936 126.104C147.79 126.808 142.652 128.442 142.652 135.28C142.652 141.478 147.207 144.335 152.936 144.335C156.618 144.335 160.47 143.339 163.1 140.596C163.156 141.591 163.391 142.587 163.69 143.517H172.106C171.345 142.295 171.054 139.544 171.054 136.801V121.079C171.054 113.828 163.812 112.485 157.791 112.485C151.01 112.485 144.06 114.824 143.59 122.592H151.884V122.6ZM175.707 143.517H184.001V129.907C184.001 124.59 186.105 120.205 192.182 120.205C193.177 120.205 194.399 120.318 195.16 120.496V112.784C194.634 112.606 193.938 112.493 193.347 112.493C189.317 112.493 185.223 115.123 183.702 118.918H183.58V113.31H175.691V143.517H175.707ZM197.425 143.517H205.72V133.119L208.932 130.02L217.226 143.517H227.276L214.596 124.412L225.99 113.31H216.174L205.72 124.178V101.796H197.425V143.517ZM247.255 131.833C247.255 133.645 247.02 138.784 240.531 138.784C237.844 138.784 235.441 138.023 235.441 134.932C235.441 131.889 237.78 131.015 240.353 130.489C242.926 130.02 245.847 129.963 247.247 128.734V131.833H247.255ZM236.38 122.6C236.671 119.331 238.718 118.044 241.874 118.044C244.795 118.044 247.247 118.57 247.247 122.131C247.247 125.521 242.513 125.343 237.432 126.104C232.285 126.808 227.147 128.442 227.147 135.28C227.147 141.478 231.703 144.335 237.432 144.335C241.105 144.335 244.965 143.339 247.595 140.596C247.652 141.591 247.886 142.587 248.178 143.517H256.593C255.832 142.295 255.541 139.544 255.541 136.801V121.079C255.541 113.828 248.291 112.485 242.279 112.485C235.498 112.485 228.547 114.824 228.077 122.592H236.38V122.6ZM281.767 143.517H289.656V101.796H281.354V116.992H281.233C279.364 114.014 275.86 112.493 272.291 112.493C263.406 112.493 258.915 120.035 258.915 128.151C258.915 136.502 263.358 144.335 272.469 144.335C276.329 144.335 279.72 142.935 281.646 139.658H281.759V143.517H281.767ZM281.646 128.321C281.646 133.289 280.003 138.08 274.517 138.08C269.37 138.08 267.21 133.111 267.21 128.377C267.21 123.409 269.079 118.732 274.517 118.732C279.898 118.74 281.646 123.417 281.646 128.321ZM322.768 130.425C323.351 121.135 318.383 112.485 308.098 112.485C298.922 112.485 292.667 119.379 292.667 128.434C292.667 137.78 298.566 144.327 308.098 144.327C314.935 144.327 319.904 141.284 322.242 134.163H314.935C314.409 136.032 311.723 138.08 308.389 138.08C303.777 138.08 301.204 135.684 300.969 130.425H322.768ZM300.969 125.165C301.082 122.826 302.603 118.74 307.863 118.74C311.893 118.74 313.705 120.957 314.466 125.165H300.969ZM326.135 143.517H334.429V125.99C334.429 120.091 338.402 119.039 340.036 119.039C345.296 119.039 345.061 123.069 345.061 126.581V143.525H353.364V126.702C353.364 122.907 354.238 119.048 358.915 119.048C363.648 119.048 363.996 122.381 363.996 126.411V143.525H372.299V123.312C372.299 115.487 367.686 112.501 361.253 112.501C357.046 112.501 353.89 114.896 352.142 117.526C350.507 113.901 347.117 112.501 343.322 112.501C339.405 112.501 336.249 114.314 334.089 117.413H333.976V113.318H326.143V143.517H326.135ZM404.593 113.31H396.008L389.405 133.993H389.292L382.454 113.31H373.569L384.202 141.648C385.14 144.043 384.202 147.021 381.337 147.312C379.703 147.369 378.068 147.134 376.49 147.021V153.859C378.19 154.037 379.881 154.15 381.572 154.15C387.301 154.15 390.157 152.159 391.97 147.312L404.593 113.31Z" fill="white"/>
<path d="M149.845 157.121H143.396V155.98V154.839H158.876V155.98V157.121H152.427V173.911H151.14H149.845V157.121Z" fill="white"/>
<path d="M166.636 174.283C164.669 174.283 163.124 173.66 162.007 172.413C160.883 171.167 160.316 169.444 160.316 167.251C160.316 164.912 160.915 163.059 162.104 161.675C163.294 160.292 164.888 159.604 166.903 159.604C168.724 159.604 170.188 160.276 171.305 161.627C172.422 162.97 172.98 164.75 172.98 166.943L172.956 167.777H162.816C162.914 169.16 163.229 170.221 163.763 170.941C164.419 171.823 165.454 172.268 166.879 172.268C167.769 172.268 168.545 172.017 169.217 171.515C169.881 171.014 170.285 170.374 170.439 169.597H172.753C172.405 171.119 171.718 172.284 170.674 173.085C169.606 173.886 168.27 174.283 166.636 174.283ZM170.536 165.899C170.463 164.613 170.148 163.609 169.573 162.889C168.942 162.096 168.02 161.7 166.798 161.7C165.568 161.7 164.589 162.161 163.852 163.075C163.278 163.796 162.922 164.734 162.8 165.908H170.536V165.899Z" fill="white"/>
<path d="M186.712 168.91C186.469 170.657 185.854 171.993 184.859 172.907C183.863 173.829 182.536 174.283 180.886 174.283C179.041 174.283 177.568 173.619 176.476 172.3C175.375 170.981 174.825 169.193 174.825 166.951C174.825 164.71 175.391 162.93 176.532 161.603C177.673 160.276 179.202 159.612 181.12 159.612C182.795 159.612 184.122 160.065 185.118 160.98C186.113 161.894 186.647 163.148 186.712 164.75H184.462C184.365 163.755 184.025 162.986 183.426 162.444C182.828 161.894 182.035 161.627 181.039 161.627C179.858 161.627 178.935 162.096 178.264 163.051C177.592 163.998 177.26 165.301 177.26 166.959C177.26 168.724 177.576 170.059 178.199 170.941C178.822 171.831 179.745 172.276 180.975 172.276C181.881 172.276 182.642 171.985 183.257 171.394C183.863 170.811 184.268 169.986 184.47 168.91H186.712V168.91Z" fill="white"/>
<path d="M189.042 154.83H190.207H191.373V161.902L191.777 161.384C192.789 160.203 194.059 159.612 195.58 159.612C197.118 159.612 198.299 160.025 199.125 160.858C199.958 161.692 200.371 162.873 200.371 164.402V173.91H199.198H198.032V164.985C198.032 163.836 197.814 163.003 197.369 162.501C196.924 161.991 196.212 161.74 195.216 161.74C194.035 161.74 193.104 162.169 192.417 163.019C191.729 163.868 191.381 165.026 191.381 166.474V173.91H190.216H189.05V154.83H189.042Z" fill="white"/>
<path d="M217.064 154.83H218.537H220.01L226.864 173.902H225.48H224.096L222.154 168.376H214.54L212.533 173.902H211.198H209.863L217.064 154.83ZM215.349 166.094H221.353L218.408 157.638H218.416L215.349 166.094Z" fill="white"/>
<path d="M239.891 168.91C239.649 170.657 239.026 171.993 238.03 172.907C237.035 173.829 235.708 174.283 234.065 174.283C232.22 174.283 230.748 173.619 229.655 172.3C228.555 170.981 228.013 169.193 228.013 166.951C228.013 164.71 228.579 162.93 229.712 161.603C230.853 160.276 232.382 159.612 234.3 159.612C235.967 159.612 237.302 160.065 238.297 160.98C239.293 161.894 239.827 163.148 239.891 164.75H237.642C237.553 163.755 237.197 162.986 236.606 162.444C236.015 161.894 235.214 161.627 234.219 161.627C233.046 161.627 232.123 162.096 231.452 163.051C230.78 163.998 230.448 165.301 230.448 166.959C230.448 168.724 230.764 170.059 231.379 170.941C232.002 171.831 232.932 172.276 234.162 172.276C235.069 172.276 235.829 171.985 236.436 171.394C237.043 170.811 237.448 169.986 237.65 168.91H239.891V168.91Z" fill="white"/>
<path d="M245.879 174.283C244.52 174.283 243.444 173.918 242.651 173.19C241.858 172.462 241.461 171.483 241.461 170.245C241.461 168.999 241.834 168.011 242.586 167.275C243.331 166.539 244.423 166.077 245.863 165.899L249.035 165.495C249.294 165.471 249.545 165.422 249.78 165.365C250.079 165.284 250.314 165.131 250.484 164.896C250.646 164.661 250.727 164.37 250.727 164.014V163.901C250.727 163.156 250.443 162.574 249.885 162.153C249.327 161.732 248.542 161.522 247.538 161.522C246.575 161.522 245.823 161.748 245.289 162.193C244.747 162.638 244.423 163.302 244.31 164.184H242.157C242.271 162.663 242.805 161.522 243.767 160.753C244.73 159.984 246.106 159.604 247.894 159.604C249.577 159.604 250.864 159.968 251.746 160.696C252.628 161.425 253.073 162.493 253.073 163.893V171.523C253.073 171.758 253.146 171.944 253.284 172.09C253.429 172.235 253.615 172.3 253.858 172.3C253.931 172.3 254.028 172.292 254.166 172.276C254.295 172.26 254.441 172.235 254.594 172.195V173.886C254.368 173.967 254.133 174.04 253.882 174.097C253.631 174.145 253.421 174.169 253.243 174.169C252.361 174.169 251.722 173.927 251.325 173.441C251.066 173.117 250.88 172.664 250.767 172.074C250.597 172.292 250.395 172.494 250.168 172.697C248.995 173.765 247.571 174.283 245.879 174.283ZM250.718 168.408V166.903C250.29 167.113 249.812 167.251 249.278 167.332L247.142 167.647C246.017 167.801 245.192 168.06 244.674 168.432C244.156 168.796 243.897 169.298 243.897 169.929C243.897 170.706 244.107 171.305 244.536 171.726C244.957 172.146 245.564 172.357 246.341 172.357C247.571 172.357 248.606 172.025 249.456 171.361C250.031 170.892 250.419 170.366 250.613 169.775C250.654 169.662 250.67 169.492 250.694 169.249C250.71 168.982 250.718 168.707 250.718 168.408Z" fill="white"/>
<path d="M262.298 174.283C260.437 174.283 258.956 173.587 257.864 172.203C256.763 170.819 256.213 168.942 256.213 166.579C256.213 164.491 256.747 162.816 257.815 161.53C258.875 160.251 260.267 159.612 261.982 159.612C263.682 159.612 265.033 160.332 266.028 161.781L266.206 162.04V154.838H267.371H268.537V173.91H267.46H266.368V172.017L266.069 172.446C265.114 173.668 263.852 174.283 262.298 174.283ZM262.427 161.708C261.116 161.708 260.162 162.129 259.555 162.962C258.948 163.796 258.648 165.123 258.648 166.943C258.648 168.659 258.98 169.978 259.628 170.9C260.283 171.823 261.214 172.292 262.427 172.292C263.56 172.292 264.475 171.871 265.162 171.014C265.858 170.164 266.198 169.031 266.198 167.631C266.198 165.738 265.874 164.281 265.219 163.253C264.572 162.226 263.641 161.708 262.427 161.708Z" fill="white"/>
<path d="M277.438 174.283C275.48 174.283 273.934 173.66 272.809 172.413C271.684 171.167 271.126 169.444 271.126 167.251C271.126 164.912 271.717 163.059 272.914 161.675C274.104 160.292 275.698 159.604 277.705 159.604C279.525 159.604 280.99 160.276 282.107 161.627C283.223 162.97 283.782 164.75 283.782 166.943L283.749 167.777H273.61C273.707 169.16 274.023 170.221 274.557 170.941C275.212 171.823 276.256 172.268 277.672 172.268C278.563 172.268 279.339 172.017 280.011 171.515C280.675 171.014 281.079 170.374 281.233 169.597H283.539C283.191 171.119 282.503 172.284 281.459 173.085C280.416 173.886 279.072 174.283 277.438 174.283ZM281.338 165.899C281.265 164.613 280.95 163.609 280.375 162.889C279.744 162.096 278.821 161.7 277.591 161.7C276.362 161.7 275.382 162.161 274.646 163.075C274.072 163.796 273.715 164.734 273.594 165.908H281.338V165.899Z" fill="white"/>
<path d="M286.565 160.025H287.674H288.791V162.088L289.268 161.465C290.312 160.227 291.566 159.612 293.023 159.612C294.269 159.612 295.256 159.976 295.992 160.713C296.324 161.044 296.575 161.417 296.761 161.845L297.133 161.368C298.137 160.203 299.334 159.62 300.734 159.62C302.191 159.62 303.307 160.017 304.1 160.81C304.893 161.603 305.29 162.727 305.29 164.176V173.918H304.125H302.959V164.961C302.959 163.909 302.741 163.108 302.312 162.566C301.883 162.023 301.244 161.748 300.419 161.748C299.407 161.748 298.598 162.137 297.999 162.93C297.4 163.715 297.101 164.783 297.101 166.118V173.918H295.936H294.771V164.411C294.771 163.545 294.576 162.881 294.18 162.428C293.783 161.975 293.209 161.748 292.464 161.748C291.429 161.748 290.579 162.193 289.915 163.067C289.252 163.949 288.92 165.09 288.92 166.482V173.918H287.755H286.59V160.025H286.565Z" fill="white"/>
<path d="M314.685 174.364C313.867 176.5 313.147 177.9 312.508 178.555C311.877 179.211 310.922 179.534 309.652 179.534C309.239 179.542 308.858 179.494 308.527 179.397V177.228C308.883 177.358 309.328 177.43 309.862 177.43C310.388 177.43 310.833 177.212 311.189 176.783C311.545 176.354 311.95 175.545 312.395 174.355L312.427 174.137L307.272 160.017H308.6H309.943L313.649 171.499L317.412 160.017H318.682H319.969L314.685 174.364Z" fill="white"/>
</svg>
